<svg width="24" height="24" viewBox="0 0 24 24" fill="none" xmlns="http://www.w3.org/2000/svg">
<path fill-rule="evenodd" clip-rule="evenodd" d="M13.22 1.84035C12.4281 1.5904 11.5719 1.5904 10.78 1.84035C9.74425 2.16729 8.90325 2.89454 8.46563 3.84175L2.03551 17.7592C1.59708 18.7082 1.65853 19.7976 2.20123 20.6969C2.81703 21.7173 3.96305 22.3471 5.20423 22.3471H5.43652C6.47395 22.3471 7.48049 22.0128 8.29059 21.3991L9.13231 20.7614C9.71601 20.3193 10.2736 19.8492 10.8032 19.3535C9.70184 18.1581 8.73846 16.8498 7.93231 15.4503L7.86515 15.3337C6.91684 13.6874 7.16533 11.653 8.47972 10.2528C10.3512 8.25913 13.6488 8.25913 15.5203 10.2528C16.8347 11.653 17.0832 13.6873 16.1349 15.3337L16.0677 15.4503C15.2615 16.8498 14.2982 18.1581 13.1968 19.3535C13.7264 19.8492 14.284 20.3193 14.8677 20.7614L15.7094 21.3991C16.5195 22.0128 17.5261 22.3471 18.5635 22.3471H18.7958C20.037 22.3471 21.183 21.7173 21.7988 20.6969C22.3415 19.7976 22.4029 18.7082 21.9645 17.7592L15.5344 3.84175C15.0967 2.89454 14.2558 2.16729 13.22 1.84035ZM12 20.5573C12.5639 21.0832 13.157 21.5822 13.7773 22.0521L14.619 22.6898C15.7386 23.5379 17.1297 24 18.5635 24H18.7958C20.6633 24 22.3877 23.0524 23.3143 21.5169C24.1309 20.1638 24.2234 18.5246 23.5637 17.0967L17.1335 3.17924C16.4979 1.80346 15.2764 0.74716 13.7719 0.272285C12.6218 -0.0907618 11.3782 -0.0907618 10.2281 0.272285C8.72361 0.74716 7.5021 1.80346 6.86646 3.17924L0.436341 17.0967C-0.223357 18.5246 -0.130884 20.1638 0.685699 21.5169C1.61227 23.0524 3.33666 24 5.20423 24H5.43652C6.8703 24 8.2614 23.5379 9.381 22.6898L10.2227 22.0521C10.843 21.5822 11.4361 21.0832 12 20.5573ZM12 18.1371C12.9688 17.0674 13.8192 15.902 14.5353 14.6588L14.6025 14.5422C15.1972 13.5098 15.042 12.2313 14.2157 11.3509C13.0385 10.0969 10.9615 10.0969 9.78433 11.3509C8.95796 12.2313 8.80285 13.5098 9.39753 14.5422L9.46469 14.6588C10.1808 15.902 11.0312 17.0674 12 18.1371Z" fill="#FF385C"/>
</svg>
