<svg width="154" height="138" viewBox="0 0 154 138" fill="none" xmlns="http://www.w3.org/2000/svg">
<path fill-rule="evenodd" clip-rule="evenodd" d="M50.7124 30.4461C59.0252 28.5038 68.1694 31.556 72.88 38.2153C74.2655 40.4351 75.6509 42.9323 77.0364 45.4295C84.7951 59.5806 94.2163 75.3965 102.252 89.825C105.023 94.542 125.251 131.446 128.299 133.943C133.287 138.105 139.383 138.66 145.202 135.885C152.683 132.001 155.731 123.122 150.19 113.688L136.612 90.1025C128.299 74.8415 118.046 58.4707 109.734 43.2098C106.408 37.3829 90.337 7.97088 86.7347 4.64122C80.6387 -1.46315 70.3861 -0.630736 65.3984 4.91869C63.7359 6.861 52.0979 27.3939 50.1582 30.7235L50.7124 30.4461Z" fill="#4DA6AE"/>
<path fill-rule="evenodd" clip-rule="evenodd" d="M0 120.346C0 125.063 0.277095 129.225 4.43352 133.11C10.8067 138.937 21.6134 138.382 26.6011 131.168C27.7095 129.503 28.8179 127.561 29.9263 125.896L39.6246 108.97C48.7687 92.5991 59.5754 75.1184 68.7196 58.7476C77.0324 43.4867 56.5274 27.9483 43.781 42.3768L8.86704 102.866C6.65028 107.028 0 116.462 0 120.346Z" fill="#DEB642"/>
</svg>
