<svg width="41" height="40" viewBox="0 0 41 40" fill="none" xmlns="http://www.w3.org/2000/svg">
<g clip-path="url(#clip0_145_788)">
<path d="M8.17383 0H32.4447C36.778 0 40.2988 3.52083 40.2988 7.875V32.1458C40.2988 36.5 36.778 40.0208 32.4238 40.0208H8.17383C3.81966 40 0.298828 36.4792 0.298828 32.125V7.875C0.298828 3.52083 3.81966 0 8.17383 0Z" fill="#003B95"/>
<path d="M30.3411 29.9583C31.737 29.9583 32.862 28.8125 32.862 27.4167C32.862 26.0208 31.737 24.875 30.3411 24.875C28.9453 24.875 27.8203 26 27.8203 27.4167C27.8203 28.8125 28.9661 29.9583 30.3411 29.9583Z" fill="white"/>
<path d="M22.528 19.1455L21.8822 18.7913L22.4447 18.3122C23.1113 17.7497 24.1947 16.4788 24.1947 14.2913C24.1947 10.9372 21.5905 8.77051 17.5697 8.77051H12.9863H12.4655C11.278 8.81217 10.3197 9.79134 10.2988 10.9788V29.9997H17.6738C22.153 29.9997 25.0488 27.5622 25.0488 23.7913C25.028 21.7497 24.0905 20.0205 22.528 19.1455ZM14.3822 13.7497C14.3822 12.7705 14.7988 12.2913 15.7155 12.2288H17.5488C19.1113 12.2288 20.0488 13.1663 20.0488 14.7497C20.0488 15.958 19.403 17.333 17.5905 17.333H14.3822V13.7497ZM17.9655 26.3955H14.3822V22.1247C14.3822 21.208 14.7363 20.7288 15.528 20.6247H17.9655C19.7155 20.6247 20.8405 21.7288 20.8405 23.4997C20.8405 25.333 19.7363 26.3955 17.9655 26.3955Z" fill="white"/>
</g>
<defs>
<clipPath id="clip0_145_788">
<rect width="40" height="40" fill="white" transform="translate(0.298828)"/>
</clipPath>
</defs>
</svg>
